<svg width="44" height="46" viewBox="0 0 44 46" fill="none" xmlns="http://www.w3.org/2000/svg">
<g filter="url(#filter0_d_1_22)">
<path d="M5.58401 19.104C5.58401 15.776 6.30401 12.816 7.74401 10.224C9.18401 7.6 11.184 5.568 13.744 4.128C16.336 2.656 19.264 1.92 22.528 1.92C26.528 1.92 29.952 2.976 32.8 5.088C35.648 7.2 37.552 10.08 38.512 13.728H29.488C28.816 12.32 27.856 11.248 26.608 10.512C25.392 9.776 24 9.408 22.432 9.408C19.904 9.408 17.856 10.288 16.288 12.048C14.72 13.808 13.936 16.16 13.936 19.104C13.936 22.048 14.72 24.4 16.288 26.16C17.856 27.92 19.904 28.8 22.432 28.8C24 28.8 25.392 28.432 26.608 27.696C27.856 26.96 28.816 25.888 29.488 24.48H38.512C37.552 28.128 35.648 31.008 32.8 33.12C29.952 35.2 26.528 36.24 22.528 36.24C19.264 36.24 16.336 35.52 13.744 34.08C11.184 32.608 9.18401 30.576 7.74401 27.984C6.30401 25.392 5.58401 22.432 5.58401 19.104Z" fill="#0026FF"/>
<path d="M38.512 14.228H39.1606L38.9956 13.6008C38.0086 9.85039 36.0432 6.87058 33.0978 4.68638C30.1528 2.50242 26.6209 1.42 22.528 1.42C19.1863 1.42 16.1721 2.17432 13.498 3.69271C10.8558 5.17916 8.7901 7.27898 7.3063 9.98232C5.82061 12.6571 5.08401 15.7021 5.08401 19.104C5.08401 22.5064 5.82082 25.5518 7.30694 28.2268C8.79087 30.8979 10.8557 32.996 13.4948 34.5135L13.4948 34.5135L13.5012 34.5171C16.1748 36.0024 19.1878 36.74 22.528 36.74C26.6192 36.74 30.15 35.6745 33.0949 33.5238L33.0978 33.5216C36.0432 31.3374 38.0086 28.3576 38.9956 24.6072L39.1606 23.98H38.512H29.488H29.1726L29.0368 24.2646C28.4042 25.5901 27.5097 26.5838 26.354 27.2653L26.354 27.2653L26.3491 27.2682C25.2191 27.9522 23.9184 28.3 22.432 28.3C20.035 28.3 18.127 27.4725 16.6613 25.8274C15.1938 24.1802 14.436 21.9571 14.436 19.104C14.436 16.2509 15.1938 14.0278 16.6613 12.3806C18.127 10.7355 20.035 9.908 22.432 9.908C23.9184 9.908 25.2191 10.2558 26.3491 10.9397L26.3491 10.9398L26.354 10.9427C27.5097 11.6242 28.4042 12.6179 29.0368 13.9434L29.1726 14.228H29.488H38.512Z" stroke="black"/>
</g>
<defs>
<filter id="filter0_d_1_22" x="0.584015" y="0.919998" width="43.2252" height="44.32" filterUnits="userSpaceOnUse" color-interpolation-filters="sRGB">
<feFlood flood-opacity="0" result="BackgroundImageFix"/>
<feColorMatrix in="SourceAlpha" type="matrix" values="0 0 0 0 0 0 0 0 0 0 0 0 0 0 0 0 0 0 127 0" result="hardAlpha"/>
<feOffset dy="4"/>
<feGaussianBlur stdDeviation="2"/>
<feComposite in2="hardAlpha" operator="out"/>
<feColorMatrix type="matrix" values="0 0 0 0 0 0 0 0 0 0 0 0 0 0 0 0 0 0 0.25 0"/>
<feBlend mode="normal" in2="BackgroundImageFix" result="effect1_dropShadow_1_22"/>
<feBlend mode="normal" in="SourceGraphic" in2="effect1_dropShadow_1_22" result="shape"/>
</filter>
</defs>
</svg>
