<?xml version="1.0" standalone="no"?>
<!DOCTYPE svg PUBLIC "-//W3C//DTD SVG 20010904//EN"
 "http://www.w3.org/TR/2001/REC-SVG-20010904/DTD/svg10.dtd">
<svg version="1.0" xmlns="http://www.w3.org/2000/svg"
 width="720.000000pt" height="1280.000000pt" viewBox="0 0 720.000000 1280.000000"
 preserveAspectRatio="xMidYMid meet">

<g transform="translate(0.000000,1280.000000) scale(0.100000,-0.100000)"
fill="#000000" stroke="none">
<path d="M3845 10555 c-88 -19 -166 -34 -172 -35 -22 0 -14 -20 7 -20 11 0 20
-5 20 -11 0 -7 -10 -9 -25 -5 -14 3 -36 9 -50 12 -30 8 -85 -13 -85 -32 0 -10
-13 -14 -42 -15 -61 0 -130 -31 -149 -65 -23 -42 -259 -198 -317 -209 -23 -4
-24 -4 -7 4 19 9 18 10 -5 11 -14 2 -32 1 -40 0 -13 -2 -73 -44 -106 -75 -60
-55 -151 -132 -168 -142 -11 -7 -43 -12 -69 -13 l-48 0 67 62 c140 132 232
191 369 241 39 14 108 43 154 66 47 23 90 41 97 41 6 0 17 7 24 15 22 27 -23
18 -120 -25 -50 -22 -96 -40 -102 -40 -26 0 -279 -133 -343 -180 -38 -29 -91
-63 -117 -76 -79 -40 -144 -116 -198 -229 -58 -126 -115 -215 -135 -215 -9 0
-24 -13 -33 -30 -9 -16 -29 -35 -44 -41 -22 -9 -28 -18 -28 -43 -1 -50 -41
-118 -84 -141 -37 -20 -38 -21 -32 -68 3 -26 1 -58 -5 -70 -11 -24 -78 -67
-103 -67 -20 0 -20 -9 0 -76 9 -31 13 -62 10 -70 -8 -21 -44 -17 -51 5 -3 11
-13 22 -22 25 -13 6 -14 -2 -8 -58 5 -53 3 -72 -15 -113 -12 -29 -32 -56 -49
-66 -45 -26 -91 -85 -91 -115 0 -17 -14 -42 -36 -67 -32 -37 -65 -88 -138
-218 -15 -27 -33 -50 -41 -53 -7 -3 -29 2 -50 10 -21 9 -44 16 -51 16 -13 0
-84 -140 -84 -166 0 -7 9 -32 21 -54 24 -46 23 -66 -13 -190 -14 -47 -36 -130
-48 -185 -27 -119 -90 -256 -128 -276 -48 -26 -120 -125 -142 -197 -38 -122
-70 -295 -80 -432 -12 -176 -14 -656 -2 -696 22 -73 68 -108 159 -120 99 -13
160 31 202 144 13 34 27 62 32 62 5 0 9 -3 9 -7 1 -21 30 -147 45 -189 31 -91
83 -189 116 -220 33 -30 79 -63 166 -118 37 -22 43 -31 43 -60 0 -18 7 -53 16
-77 11 -31 13 -60 9 -97 -5 -43 -2 -65 19 -120 36 -95 46 -143 55 -257 7 -91
11 -106 45 -163 35 -59 57 -119 91 -252 8 -30 23 -73 34 -95 39 -82 51 -139
51 -235 0 -52 -3 -104 -6 -115 -10 -34 -101 -104 -150 -116 -41 -11 -50 -19
-115 -110 -39 -55 -78 -107 -88 -117 -26 -24 -48 -70 -62 -128 -6 -27 -22 -71
-36 -98 -13 -27 -25 -62 -27 -78 -1 -17 -7 -33 -13 -36 -20 -14 -33 -78 -33
-168 0 -51 4 -96 10 -99 15 -9 12 -35 -4 -35 -17 0 -30 -51 -27 -110 2 -33 -3
-53 -18 -71 -17 -22 -19 -35 -14 -82 l6 -57 -38 0 -37 0 7 -80 c5 -56 4 -80
-4 -80 -6 0 -12 19 -13 43 l-1 42 -4 -40 c-3 -22 -8 -42 -13 -45 -4 -3 -11
-40 -15 -82 -6 -67 -5 -78 8 -78 11 0 17 12 20 43 2 23 4 5 5 -40 l2 -83 -85
0 -85 0 0 -40 c0 -22 -4 -40 -10 -40 -5 0 -10 18 -10 40 0 22 5 40 10 40 6 0
10 7 10 15 0 12 -15 15 -79 15 l-78 0 -13 -45 c-12 -43 -30 -61 -30 -30 0 8
-4 15 -10 15 -5 0 -10 -9 -10 -19 0 -11 -17 -36 -38 -56 -37 -34 -39 -39 -34
-86 3 -34 1 -49 -7 -49 -7 0 -26 -13 -44 -29 -31 -30 -31 -30 -28 -120 3 -88
2 -91 -19 -91 -21 0 -22 -2 -15 -80 6 -70 5 -80 -9 -80 -12 0 -16 -10 -16 -40
0 -36 -2 -40 -25 -40 -22 0 -25 -4 -25 -40 l0 -40 -40 0 -40 0 0 -80 0 -80
-39 0 c-22 0 -44 -6 -51 -15 -12 -14 -15 -13 -31 4 -11 12 -19 35 -19 56 0 19
-4 35 -10 35 -15 0 -12 77 3 83 7 2 8 8 3 13 -5 5 -11 4 -13 -3 -3 -9 -30 -13
-88 -13 l-83 0 -40 41 c-22 22 -46 53 -52 70 -16 37 -24 37 -40 -1 -11 -27
-17 -30 -57 -30 -36 0 -46 4 -50 20 -6 24 -19 26 -31 4 -20 -35 -31 74 -32
300 0 126 -2 232 -5 234 -3 3 -5 -535 -5 -1196 l0 -1201 3600 -1 3600 0 0
1614 0 1615 -22 6 c-21 7 -566 271 -613 298 -11 6 -59 30 -106 53 -89 43 -138
65 -414 180 -247 103 -285 119 -355 152 -36 16 -105 44 -155 62 -164 57 -425
200 -382 208 9 2 17 10 17 17 0 7 8 16 18 18 12 3 10 5 -7 6 -18 1 -21 4 -13
14 6 7 11 40 11 72 -1 35 3 61 10 63 6 2 11 10 11 19 0 8 6 21 14 29 10 9 13
27 10 53 -3 28 2 50 23 87 15 27 33 53 40 57 7 5 11 12 8 17 -3 6 12 17 34 26
42 17 60 42 39 56 -10 6 -8 8 5 8 12 0 17 8 17 28 1 20 3 23 9 12 5 -9 23 -15
42 -15 51 0 65 37 50 124 -15 84 -7 109 33 102 8 -2 1 108 -11 157 -4 17 -1
22 15 22 12 0 23 4 26 8 3 5 36 17 73 27 37 9 85 28 105 41 21 13 42 24 48 24
13 0 50 43 100 114 62 89 119 212 171 363 l49 148 -7 -120 c-11 -172 -6 -283
16 -325 21 -41 65 -58 154 -59 51 -1 62 2 87 27 40 40 63 131 94 362 14 107
36 267 47 355 17 121 22 214 23 380 l1 220 -35 54 c-34 54 -35 58 -44 202 -8
139 -8 149 11 181 19 31 20 42 12 163 -5 72 -14 159 -21 194 l-12 63 44 38 44
38 -18 73 c-10 41 -29 99 -41 129 -13 30 -26 82 -30 115 l-6 60 26 -30 c14
-16 37 -43 50 -59 41 -49 40 -44 -21 179 -9 33 -22 71 -30 85 -22 41 -65 141
-81 190 -8 25 -30 78 -50 118 -45 95 -52 138 -27 157 11 8 22 15 26 15 14 0
90 -112 125 -184 l34 -71 -6 80 c-8 124 -51 246 -129 368 -18 29 -37 62 -41
75 -4 15 -12 21 -21 18 -17 -6 -58 68 -50 90 7 18 56 18 83 -1 28 -20 107
-140 161 -245 38 -76 48 -80 27 -12 -5 13 -3 22 4 22 6 0 14 -12 17 -27 12
-50 94 -161 94 -127 0 25 -98 227 -143 294 -189 282 -316 432 -462 540 -75 56
-124 100 -125 113 0 17 31 5 62 -23 18 -16 36 -30 41 -30 18 0 -40 58 -84 85
-53 31 -92 68 -129 117 -13 18 -59 67 -100 108 -42 41 -100 106 -129 143 -58
73 -73 84 -183 123 -128 46 -285 135 -273 155 9 13 48 11 114 -5 31 -8 81 -17
111 -20 53 -6 54 -5 25 9 -16 7 -64 21 -105 30 -154 34 -204 48 -259 73 -31
13 -86 33 -123 43 -82 22 -105 34 -113 58 -8 25 -68 64 -134 86 -45 15 -68 16
-135 9 -102 -10 -288 -11 -386 -2 -65 7 -96 3 -235 -27z m620 -25 c110 -11
154 -21 185 -43 28 -20 10 -30 -29 -16 -17 6 -38 8 -46 5 -8 -3 -15 -1 -15 4
0 6 -24 10 -52 10 -29 0 -48 -4 -41 -8 6 -4 -20 -8 -58 -9 -70 -2 -158 -19
-281 -54 -36 -10 -83 -19 -103 -19 -117 0 -253 -64 -449 -212 -48 -36 -127
-84 -175 -105 -47 -21 -111 -52 -141 -70 -30 -18 -70 -40 -89 -50 l-33 -18
-25 29 c-23 27 -23 29 -6 48 31 34 167 124 355 233 98 58 181 105 182 105 2 0
29 16 61 35 65 39 186 91 260 112 51 14 344 43 380 37 11 -2 65 -8 120 -14z
m-965 -99 c0 -12 -39 -21 -45 -11 -3 5 1 11 7 13 21 9 38 8 38 -2z m1398 -80
c3 -8 -4 -12 -19 -9 -13 1 -25 11 -27 20 -3 15 1 16 19 9 13 -4 25 -13 27 -20z
m-458 -16 c-7 -8 -18 -15 -25 -15 -7 0 -23 -8 -36 -19 -13 -10 -35 -22 -49
-26 -32 -9 -255 -93 -297 -111 -38 -17 -48 -17 -72 -2 -18 11 -18 12 3 30 20
17 20 18 1 12 -16 -6 -18 -4 -8 6 7 7 25 13 42 12 16 0 35 6 42 14 6 8 17 14
24 14 8 0 15 3 17 8 3 8 145 66 198 80 19 6 66 11 104 11 60 1 67 -1 56 -14z
m-1186 -1021 c26 -9 56 -14 67 -11 12 3 48 -7 82 -23 34 -15 79 -33 100 -40
22 -7 51 -18 65 -26 15 -8 30 -14 34 -14 4 0 32 -11 62 -25 30 -14 60 -25 67
-25 15 0 133 -75 149 -95 6 -8 18 -11 26 -8 7 3 17 -2 20 -11 9 -23 46 -20
100 9 26 14 59 25 74 25 15 0 33 7 40 15 8 9 29 15 59 15 45 -1 45 -1 21 -15
l-25 -14 32 -1 c17 0 35 -4 38 -10 3 -5 -1 -10 -9 -10 -12 0 -16 -11 -16 -45
0 -38 3 -45 20 -45 17 0 20 -7 20 -39 0 -23 8 -48 20 -64 11 -14 20 -32 20
-41 0 -9 8 -16 20 -16 17 0 20 -7 20 -40 0 -30 8 -48 32 -75 24 -29 29 -38 18
-45 -10 -6 -6 -15 19 -35 21 -18 30 -33 26 -45 -3 -9 1 -23 10 -30 8 -7 15
-19 15 -26 0 -21 50 -115 76 -144 16 -18 23 -41 26 -85 3 -37 15 -81 31 -114
15 -30 27 -67 27 -82 0 -14 7 -32 15 -39 8 -7 15 -19 15 -26 0 -25 32 -94 44
-94 7 0 25 -25 41 -57 17 -31 35 -56 40 -55 18 1 35 -20 35 -43 0 -12 14 -34
30 -49 36 -31 32 -46 -10 -40 -22 4 -30 1 -30 -9 0 -17 -52 -23 -283 -33 -123
-6 -139 -5 -150 10 -11 15 -16 16 -42 4 -22 -10 -29 -10 -33 0 -2 6 -9 12 -16
12 -21 0 -116 51 -116 63 -1 12 -34 -41 -35 -55 0 -3 -3 -10 -7 -14 -5 -4 -8
9 -8 28 0 21 -7 41 -17 49 -15 13 -16 9 -9 -45 4 -39 3 -63 -5 -72 -24 -29
-193 -11 -206 22 -7 18 -23 18 -23 -1 0 -7 -8 -18 -17 -24 -14 -7 -15 -12 -5
-24 9 -10 43 -16 120 -20 115 -5 202 -30 170 -48 -11 -6 -34 -5 -62 1 -24 5
-84 13 -133 16 -48 4 -124 15 -168 25 -44 10 -96 19 -115 19 -19 1 -64 7 -100
15 l-65 14 95 -6 c52 -2 112 -6 134 -8 57 -4 76 4 76 31 0 19 -5 24 -25 24
-18 0 -23 4 -19 15 5 11 2 14 -12 8 -11 -3 -23 -13 -27 -20 -15 -25 -24 -3
-31 76 -7 75 -9 80 -26 69 -10 -7 -23 -22 -29 -35 -17 -37 -28 -27 -33 32 -5
61 -11 73 -30 58 -7 -6 -37 -16 -67 -22 -50 -11 -55 -10 -68 9 -12 16 -18 18
-28 10 -8 -7 -19 -9 -26 -5 -6 4 -15 2 -19 -4 -4 -7 -15 -12 -26 -12 -45 1
-268 44 -349 68 -161 47 -205 54 -322 55 -88 0 -180 -22 -223 -54 -10 -7 -45
-32 -78 -56 -34 -23 -66 -51 -72 -63 -12 -21 -109 -69 -141 -69 -11 0 -28 6
-39 12 -25 16 -45 -2 -55 -49 -6 -31 -5 -33 21 -33 15 0 35 7 44 15 31 28 190
40 391 27 244 -15 312 -27 624 -118 103 -30 198 -71 191 -83 -6 -9 -6 -9 -286
48 -299 60 -329 64 -574 69 l-228 4 23 -23 c13 -13 28 -24 34 -24 16 0 16 -16
-1 -70 -8 -27 -19 -81 -25 -120 -6 -38 -15 -84 -20 -101 -16 -52 12 -105 87
-165 35 -28 64 -55 64 -59 0 -5 33 -35 73 -67 85 -70 182 -115 292 -138 44
-10 89 -21 101 -25 21 -8 105 11 189 44 22 8 51 15 65 16 16 0 21 3 13 8 -15
9 70 28 167 38 45 4 72 12 88 27 21 20 23 20 36 2 12 -17 14 -15 29 26 l15 44
1 -40 c1 -87 -107 -299 -249 -487 -140 -184 -209 -222 -394 -215 -190 7 -339
35 -551 105 -146 48 -229 89 -272 134 -38 40 -88 136 -103 198 -15 63 -25 325
-13 333 6 4 13 -31 17 -94 13 -184 50 -324 104 -388 l27 -33 19 128 c10 71 27
183 37 249 10 66 19 152 19 190 1 39 7 104 15 145 8 41 24 129 35 195 12 66
29 131 37 144 l15 24 -48 -6 c-96 -13 -184 -43 -184 -63 0 -8 -5 -14 -11 -14
-6 0 -7 8 -3 23 5 12 8 41 9 64 1 54 9 62 26 24 9 -20 16 -26 21 -18 13 20 9
35 -14 57 -20 19 -21 23 -8 58 7 20 26 53 41 72 15 19 39 65 52 101 27 71 93
199 137 264 67 100 90 152 90 202 0 33 5 55 15 63 19 16 19 40 1 40 -23 0 -29
19 -14 43 7 12 22 48 32 80 11 31 23 57 27 57 4 0 9 10 13 23 3 13 23 51 46
85 22 35 40 67 40 72 0 11 49 95 93 160 46 68 142 157 178 165 22 5 34 15 40
35 8 21 19 29 42 33 39 7 87 17 106 23 11 4 11 8 -3 23 -22 25 -12 31 55 31
32 0 61 5 65 11 3 6 14 9 24 6 10 -2 24 -1 31 4 22 14 91 10 143 -7z m3040
-174 c-6 -5 -24 21 -24 34 0 6 6 1 14 -10 8 -10 12 -21 10 -24z m-4524 -1152
c6 -57 18 -116 27 -131 9 -18 12 -38 8 -58 -6 -26 -4 -31 16 -36 22 -6 22 -6
2 -14 -12 -4 -23 -20 -26 -37 -5 -24 -11 -30 -34 -30 -47 0 -63 14 -56 48 3
17 3 30 -1 30 -4 0 -31 -25 -61 -55 -31 -30 -60 -55 -65 -55 -6 0 -10 26 -10
59 0 32 -7 75 -15 95 -10 24 -13 50 -9 74 11 62 20 71 72 74 l47 3 38 73 c21
40 42 70 46 67 5 -2 14 -51 21 -107z m853 -275 c-13 -2 -33 -2 -45 0 -13 2 -3
4 22 4 25 0 35 -2 23 -4z m397 -38 c58 -4 141 -13 185 -20 44 -7 110 -16 147
-20 37 -4 70 -10 73 -15 6 -10 -141 -3 -215 11 -30 5 -104 14 -165 20 -162 14
-200 20 -184 30 8 4 23 6 34 4 11 -2 67 -7 125 -10z m-1470 -67 c-7 -18 -18
-73 -26 -122 -14 -92 -60 -252 -74 -261 -15 -9 2 131 27 218 13 48 22 93 20
100 -3 6 -19 -21 -37 -60 -18 -40 -37 -73 -43 -73 -15 0 -1 98 18 127 9 13 28
28 43 34 35 13 72 48 72 67 0 9 3 13 6 9 4 -3 1 -21 -6 -39z m-250 -37 c0 -21
-11 -58 -25 -85 -14 -26 -25 -63 -25 -82 0 -19 -9 -52 -19 -73 -21 -40 -93
-111 -114 -111 -6 0 -23 -3 -36 -7 -23 -6 -23 -6 -20 70 4 66 8 80 35 114 39
48 104 94 126 89 19 -4 32 22 22 47 -9 24 24 76 49 77 4 0 7 -17 7 -39z m789
-112 c3 -92 -14 -118 -41 -63 -24 50 -23 84 5 111 12 12 25 22 28 22 3 1 7
-31 8 -70z m2274 44 c-7 -2 -21 -2 -30 0 -10 3 -4 5 12 5 17 0 24 -2 18 -5z
m1840 -55 c3 -13 11 -71 18 -130 l12 -106 -32 -40 -32 -40 12 -82 c11 -75 14
-84 50 -117 22 -21 39 -46 39 -58 0 -12 -16 -53 -35 -93 -20 -39 -41 -97 -47
-129 -10 -49 -13 -54 -19 -33 -4 14 -8 50 -8 80 -1 30 -6 73 -11 95 -27 111
-30 161 -15 246 8 46 15 87 15 91 0 16 -34 38 -99 63 -38 14 -82 38 -97 52
l-28 26 44 17 c32 12 51 28 65 53 12 20 34 46 50 59 17 12 38 33 48 45 24 30
63 30 70 1z m-1255 -93 c274 -28 517 -82 649 -146 49 -24 75 -49 50 -49 -18 0
-97 25 -142 45 -123 54 -434 98 -780 111 -103 4 -187 12 -213 20 -32 10 -54
12 -78 5 -34 -9 -51 -1 -39 19 4 7 24 8 50 4 26 -3 50 -2 62 5 22 14 234 7
441 -14z m-3082 -131 c16 -38 18 -87 5 -112 -5 -9 -12 -25 -15 -34 -3 -10 -13
-18 -22 -18 -14 0 -16 7 -10 46 3 26 6 73 6 106 0 65 12 69 36 12z m-101 -122
c-4 -11 -9 -12 -16 -5 -10 10 -8 56 5 118 2 11 6 27 7 35 2 8 5 -18 6 -59 2
-41 1 -81 -2 -89z m2103 143 c147 -31 252 -62 252 -75 0 -24 -501 27 -527 54
-4 3 2 13 13 21 26 20 167 20 262 0z m-2133 -15 c8 -12 -3 -50 -15 -50 -9 0
-20 47 -12 55 8 8 20 6 27 -5z m976 -29 c21 -21 29 -39 29 -64 0 -31 -4 -37
-34 -47 -76 -25 -120 57 -63 118 27 29 33 28 68 -7z m214 -68 c-2 -7 1 -13 8
-14 7 0 2 -4 -10 -9 -31 -13 -60 -1 -66 26 -2 14 0 27 5 30 4 3 6 10 3 15 -4
5 -3 14 1 21 9 14 65 -52 59 -69z m184 -9 c21 -26 19 -54 -4 -54 -30 0 -45 13
-45 39 0 48 19 54 49 15z m488 -1 c16 7 47 7 106 -2 95 -14 121 -25 97 -41 -8
-6 -24 -8 -35 -6 -90 21 -103 20 -138 -15 -18 -19 -45 -50 -61 -69 -25 -32
-27 -33 -22 -10 3 14 6 57 6 95 1 55 4 66 12 54 9 -14 16 -15 35 -6z m370 -33
c14 0 43 -20 73 -50 48 -48 63 -69 38 -54 -7 5 -9 2 -6 -7 3 -8 0 -20 -8 -26
-10 -10 -17 -4 -34 30 -26 52 -58 76 -112 85 -23 4 -44 14 -46 21 -4 11 4 13
34 8 22 -4 49 -7 61 -7z m-107 -95 c41 -21 65 -59 99 -161 49 -146 61 -206 61
-308 0 -86 3 -101 25 -136 14 -22 30 -40 36 -40 6 0 8 -7 5 -15 -3 -10 1 -18
12 -22 20 -8 36 -27 57 -70 9 -18 21 -33 27 -33 17 0 106 -79 125 -111 22 -36
31 -37 35 -1 l4 27 19 -31 c10 -17 31 -36 46 -43 19 -8 26 -17 22 -31 -4 -15
9 -26 68 -56 41 -20 90 -38 109 -40 137 -10 185 -16 190 -23 3 -4 17 -11 32
-15 23 -5 27 -11 26 -34 -3 -31 -20 -52 -42 -52 -10 0 -16 -9 -16 -25 0 -28
-33 -47 -80 -47 -35 0 -43 -7 -29 -24 6 -8 20 -12 30 -9 9 3 20 1 24 -5 3 -6
-4 -10 -17 -10 -15 0 -32 -13 -48 -35 -25 -34 -40 -44 -40 -25 0 6 -47 10
-120 10 -79 0 -120 -4 -120 -11 0 -19 -28 -39 -54 -39 -22 0 -26 -4 -26 -29 0
-19 6 -31 18 -35 9 -3 -13 -3 -50 -1 -39 2 -78 11 -92 20 -14 9 -29 14 -34 11
-5 -3 -36 20 -70 50 l-61 56 25 23 c14 13 24 29 23 37 -4 30 2 46 19 50 10 3
40 37 65 76 38 57 48 81 53 129 6 53 3 65 -20 105 -14 24 -27 62 -28 84 -2 21
-6 41 -9 44 -4 3 -17 23 -29 45 -22 40 -22 40 -16 8 3 -18 2 -35 -3 -37 -5 -3
-28 5 -52 17 -42 22 -122 47 -152 47 -7 0 -45 -30 -83 -66 -64 -61 -117 -94
-150 -94 -7 0 -39 12 -71 27 -32 15 -83 28 -114 31 -74 6 -196 -14 -234 -38
-16 -11 -48 -29 -70 -41 -22 -12 -45 -29 -51 -37 -7 -9 -16 -12 -24 -7 -10 6
-12 -3 -8 -42 5 -52 44 -145 74 -178 92 -99 93 -101 90 -158 -3 -61 -10 -77
-35 -77 -9 0 -22 -5 -28 -11 -6 -6 -33 -13 -59 -15 -25 -3 -52 -8 -58 -12 -6
-4 -29 -7 -51 -8 -22 -1 -74 -9 -115 -18 -41 -10 -95 -18 -120 -18 -57 0 -169
-18 -193 -30 -15 -8 -20 -5 -24 11 -11 43 -48 17 -78 -54 -41 -98 -48 -131
-46 -215 5 -157 4 -180 -4 -188 -4 -4 -10 -1 -12 6 -6 17 -30 15 -37 -3 -3
-10 -19 -15 -46 -15 -22 0 -40 -4 -40 -10 0 -5 -6 -10 -14 -10 -17 0 -29 27
-15 32 15 5 0 35 -27 53 -18 11 -24 12 -24 3 0 -23 -20 15 -20 39 0 12 -8 24
-19 28 -11 3 -29 26 -40 51 -12 25 -28 47 -36 50 -8 4 -15 11 -15 16 0 6 -12
22 -26 35 -15 13 -23 30 -20 38 4 10 -1 15 -15 15 -18 0 -20 4 -14 27 3 15 7
32 8 38 1 5 -10 9 -25 7 -26 -3 -28 0 -28 33 0 32 -3 36 -22 33 -19 -2 -23 2
-23 24 -1 15 -9 36 -19 47 -11 12 -16 29 -13 40 3 11 -1 25 -9 32 -8 6 -14 24
-14 40 0 15 -7 32 -15 37 -36 20 -49 452 -20 672 8 62 15 135 15 162 0 58 15
62 31 8 7 -21 33 -63 59 -92 68 -77 169 -115 540 -203 161 -38 212 -45 334
-45 109 0 121 2 180 30 69 32 165 104 212 160 48 56 162 233 169 261 4 14 18
38 33 54 14 15 38 53 54 84 20 42 27 50 28 32 0 -32 -75 -195 -117 -251 -18
-25 -40 -61 -49 -80 -9 -19 -28 -59 -42 -89 -16 -34 -52 -80 -96 -123 -39 -37
-67 -68 -63 -68 4 0 34 18 66 39 80 54 161 147 201 228 18 38 60 109 94 158
34 50 93 139 131 199 41 64 81 116 99 127 37 23 87 24 126 4z m1132 -99 c12
-18 9 -26 -18 -51 -35 -33 -114 -36 -114 -6 0 11 12 33 26 50 23 28 30 31 63
25 20 -4 39 -12 43 -18z m-915 -48 c-3 -7 -5 -2 -5 12 0 14 2 19 5 13 2 -7 2
-19 0 -25z m730 10 c-3 -8 -6 -5 -6 6 -1 11 2 17 5 13 3 -3 4 -12 1 -19z
m-714 -48 c3 -11 1 -20 -4 -20 -5 0 -9 9 -9 20 0 11 2 20 4 20 2 0 6 -9 9 -20z
m1797 -187 c0 -27 -3 -34 -11 -26 -7 7 -9 23 -5 37 9 37 16 32 16 -11z m-1675
-35 c12 -32 21 -46 23 -35 2 9 10 17 18 17 8 0 14 5 14 10 0 6 11 10 25 10 14
0 25 4 25 8 0 15 75 -1 91 -19 9 -11 26 -19 39 -19 13 0 24 -8 27 -20 3 -11 9
-20 14 -20 5 0 20 -18 34 -40 14 -23 30 -38 34 -35 14 8 28 -17 36 -63 4 -23
13 -49 21 -56 8 -8 14 -31 14 -50 0 -32 3 -36 26 -36 20 0 25 -4 20 -16 -4 -9
5 -36 19 -61 14 -25 25 -47 25 -49 0 -2 -15 -4 -32 -4 -46 0 -79 -11 -75 -24
5 -16 182 -52 302 -62 39 -3 88 -7 110 -10 60 -7 302 15 368 33 41 12 74 30
115 66 68 60 93 95 139 194 19 41 37 73 39 70 17 -17 -101 -259 -147 -303 -20
-20 -55 -34 -121 -50 -82 -21 -117 -24 -298 -24 -113 0 -245 5 -295 10 -235
27 -414 105 -479 209 -37 59 -166 379 -166 412 0 26 18 3 35 -43z m-23 -178
c5 -25 19 -64 30 -88 11 -24 18 -46 15 -49 -7 -6 -28 41 -57 127 -7 19 -21 59
-31 89 -11 30 -19 59 -18 65 1 19 49 -96 61 -144z m507 -446 c2 -2 -10 -4 -27
-4 -18 0 -32 5 -32 10 0 9 47 4 59 -6z m48 -10 c-3 -3 -12 -4 -19 -1 -8 3 -5
6 6 6 11 1 17 -2 13 -5z m148 -13 c15 -7 11 -9 -18 -9 -20 0 -40 4 -43 9 -6
11 33 11 61 0z m-465 -380 c0 -37 2 -40 33 -43 25 -3 28 -6 15 -12 -10 -5 -30
-2 -48 5 -26 12 -30 19 -30 51 0 27 4 38 15 38 11 0 15 -11 15 -39z m-893
-148 c58 -19 109 -28 196 -33 65 -4 120 -9 122 -11 2 -2 6 -16 10 -32 5 -18 3
-27 -5 -27 -7 0 -18 -8 -25 -17 -10 -13 -31 -17 -116 -17 -113 -1 -246 26
-347 70 -44 20 -53 27 -50 46 2 17 13 24 53 34 73 17 77 17 162 -13z m-735
-282 c18 -1 32 -10 45 -33 20 -34 32 -37 123 -29 24 2 24 2 6 16 -19 14 -18
15 10 15 82 0 464 -65 514 -87 8 -3 18 -7 22 -7 3 -1 10 -4 14 -8 4 -5 18 -8
31 -8 14 0 23 -6 23 -16 0 -8 3 -13 8 -11 4 3 7 -14 7 -38 0 -24 -3 -41 -6
-39 -4 2 -18 -14 -33 -36 -14 -22 -30 -40 -36 -40 -5 0 -20 -11 -34 -24 -35
-32 -125 -41 -203 -21 -32 8 -65 15 -75 15 -10 0 -18 5 -18 10 0 6 -9 10 -20
10 -11 0 -23 6 -26 14 -3 8 -19 18 -35 21 -16 4 -38 19 -49 35 -11 16 -34 31
-50 35 -18 4 -36 17 -45 33 -10 20 -14 22 -15 10 0 -22 -20 -24 -20 -3 0 10
-10 15 -30 15 -25 0 -30 -4 -30 -24 l0 -25 -127 -3 -128 -3 -34 33 c-28 28
-32 38 -27 65 4 18 8 40 9 50 1 10 10 17 24 17 12 0 25 5 29 11 5 9 -1 10 -20
5 -18 -4 -25 -3 -21 4 3 5 16 10 28 11 12 0 42 8 67 18 25 11 56 17 70 16 14
-2 37 -4 52 -4z m78 -261 c0 -5 -4 -10 -10 -10 -5 0 -10 5 -10 10 0 6 5 10 10
10 6 0 10 -4 10 -10z m95 -110 c3 -5 1 -10 -4 -10 -6 0 -11 5 -11 10 0 6 2 10
4 10 3 0 8 -4 11 -10z m-338 -322 c-3 -8 -6 -5 -6 6 -1 11 2 17 5 13 3 -3 4
-12 1 -19z m23 -27 c0 -5 -7 -11 -14 -14 -10 -4 -13 -1 -9 9 6 15 23 19 23 5z
m60 -26 c0 -11 11 -15 40 -15 22 0 40 -4 40 -10 0 -5 17 -10 39 -10 43 0 52
-14 50 -80 -1 -19 -3 -27 -6 -17 -6 23 -83 25 -83 2 0 -19 -44 -20 -60 -1 -6
8 -21 16 -32 18 -12 2 -26 12 -32 23 -6 11 -17 24 -25 30 -11 9 -8 17 15 42
32 34 54 41 54 18z m77 -177 c-3 -8 -6 -5 -6 6 -1 11 2 17 5 13 3 -3 4 -12 1
-19z m-777 -18 c0 -26 -54 -77 -58 -55 -4 20 37 87 49 79 5 -3 9 -14 9 -24z
m-100 -80 c-44 -35 -70 -64 -70 -80 0 -13 -1 -13 -10 0 -7 11 -10 6 -10 -20 0
-26 -3 -31 -10 -20 -10 17 -12 16 -34 -28 -9 -18 -14 -37 -11 -42 10 -17 -5
-32 -20 -20 -9 8 -14 5 -18 -10 -3 -11 -10 -20 -17 -20 -10 0 32 85 49 100 4
3 15 22 26 43 29 56 69 97 93 97 12 0 22 5 22 10 0 6 8 10 18 10 14 -1 12 -4
-8 -20z m3818 -264 c59 -29 124 -59 144 -65 52 -17 66 -37 31 -44 -15 -3 -36
-1 -46 5 -10 5 -21 7 -24 5 -8 -9 8 -30 87 -117 74 -81 97 -110 85 -110 -15 0
-52 26 -86 59 -20 20 -65 63 -100 97 -35 33 -86 88 -114 121 -27 33 -66 69
-85 81 -71 43 1 22 108 -32z m-3987 11 c-10 -9 -11 -8 -5 6 3 10 9 15 12 12 3
-3 0 -11 -7 -18z m-41 -13 c0 -8 -5 -12 -10 -9 -6 4 -8 11 -5 16 9 14 15 11
15 -7z m-43 -176 c-2 -13 -4 -5 -4 17 -1 22 1 32 4 23 2 -10 2 -28 0 -40z
m4925 -199 c20 -10 39 -23 43 -29 3 -5 14 -10 25 -10 21 0 121 -49 132 -65 4
-5 8 -7 8 -3 0 10 180 -82 180 -92 0 -6 8 -10 17 -10 9 0 14 -3 11 -6 -10 -10
-99 25 -181 72 -44 24 -83 44 -88 44 -5 0 -9 4 -9 9 0 5 -12 11 -27 14 -16 3
-45 17 -66 31 -21 14 -42 26 -46 26 -5 0 -14 7 -21 15 -7 8 -21 15 -31 15 -10
0 -21 5 -25 11 -8 14 26 4 78 -22z"/>
<path d="M4385 6550 c3 -5 8 -10 11 -10 2 0 4 5 4 10 0 6 -5 10 -11 10 -5 0
-7 -4 -4 -10z"/>
<path d="M4545 6110 c3 -5 8 -10 11 -10 2 0 4 5 4 10 0 6 -5 10 -11 10 -5 0
-7 -4 -4 -10z"/>
<path d="M2918 5043 c6 -2 18 -2 25 0 6 3 1 5 -13 5 -14 0 -19 -2 -12 -5z"/>
<path d="M1648 8703 c-65 -81 -99 -128 -123 -168 -17 -29 -17 -30 1 -9 11 12
32 39 49 60 16 22 56 69 87 105 32 36 58 69 58 72 0 20 -23 0 -72 -60z"/>
<path d="M6508 8620 c-3 -97 1 -139 17 -170 20 -39 41 -51 31 -19 -4 13 -11
67 -15 120 -11 124 -29 163 -33 69z"/>
<path d="M1530 3960 c-14 -11 -20 -20 -14 -20 6 0 19 9 29 20 23 25 17 25 -15
0z"/>
<path d="M1390 3881 c-81 -53 -153 -111 -146 -118 2 -3 18 5 35 16 17 12 44
30 61 41 16 11 33 20 37 20 4 0 32 21 61 45 71 59 46 57 -48 -4z"/>
<path d="M1200 3725 c-7 -8 -8 -15 -2 -15 5 0 15 7 22 15 7 8 8 15 2 15 -5 0
-15 -7 -22 -15z"/>
<path d="M1280 2760 c0 -33 3 -40 20 -40 17 0 20 7 20 40 0 33 -3 40 -20 40
-17 0 -20 -7 -20 -40z"/>
<path d="M940 2490 c0 -5 5 -10 10 -10 6 0 10 5 10 10 0 6 -4 10 -10 10 -5 0
-10 -4 -10 -10z"/>
<path d="M770 2130 c-13 -9 -13 -11 0 -20 22 -15 30 -12 30 10 0 22 -8 25 -30
10z"/>
<path d="M421 1854 c0 -11 3 -14 6 -6 3 7 2 16 -1 19 -3 4 -6 -2 -5 -13z"/>
<path d="M240 1850 c0 -5 5 -10 10 -10 6 0 10 5 10 10 0 6 -4 10 -10 10 -5 0
-10 -4 -10 -10z"/>
</g>
</svg>
