<svg width="46" height="46" viewBox="0 0 46 46" fill="none" xmlns="http://www.w3.org/2000/svg">
<g filter="url(#filter0_d_1_24)">
<path d="M22.912 36.336C19.744 36.336 16.832 35.6 14.176 34.128C11.552 32.656 9.456 30.608 7.888 27.984C6.352 25.328 5.584 22.352 5.584 19.056C5.584 15.76 6.352 12.8 7.888 10.176C9.456 7.55201 11.552 5.50401 14.176 4.03201C16.832 2.56001 19.744 1.82401 22.912 1.82401C26.08 1.82401 28.976 2.56001 31.6 4.03201C34.256 5.50401 36.336 7.55201 37.84 10.176C39.376 12.8 40.144 15.76 40.144 19.056C40.144 22.352 39.376 25.328 37.84 27.984C36.304 30.608 34.224 32.656 31.6 34.128C28.976 35.6 26.08 36.336 22.912 36.336ZM22.912 28.848C25.6 28.848 27.744 27.952 29.344 26.16C30.976 24.368 31.792 22 31.792 19.056C31.792 16.08 30.976 13.712 29.344 11.952C27.744 10.16 25.6 9.264 22.912 9.264C20.192 9.264 18.016 10.144 16.384 11.904C14.784 13.664 13.984 16.048 13.984 19.056C13.984 22.032 14.784 24.416 16.384 26.208C18.016 27.968 20.192 28.848 22.912 28.848Z" fill="#0026FF"/>
<path d="M13.9314 34.5641L13.9336 34.5653C16.6671 36.0802 19.663 36.836 22.912 36.836C26.161 36.836 29.1419 36.0802 31.8446 34.5641C34.547 33.0481 36.6911 30.9364 38.2715 28.2366L38.2728 28.2343C39.8561 25.4966 40.644 22.4331 40.644 19.056C40.644 15.6798 39.8565 12.6319 38.2727 9.92544C36.7234 7.22321 34.5778 5.11096 31.8435 3.5953C29.1411 2.07957 26.1605 1.32401 22.912 1.32401C19.663 1.32401 16.6671 2.07976 13.9336 3.59467L13.9314 3.59593C11.23 5.11137 9.07083 7.22183 7.45879 9.91953L7.45877 9.91952L7.45649 9.92342C5.8719 12.6304 5.084 15.6789 5.084 19.056C5.084 22.4331 5.87191 25.4966 7.45517 28.2343L7.45512 28.2343L7.45879 28.2405C9.07083 30.9382 11.23 33.0486 13.9314 34.5641ZM28.9743 25.8233L28.9743 25.8233L28.971 25.827C27.4778 27.4995 25.4764 28.348 22.912 28.348C20.3125 28.348 18.2778 27.5131 16.7538 25.8715C15.256 24.192 14.484 21.9377 14.484 19.056C14.484 16.1393 15.2575 13.8875 16.7523 12.2422C18.2765 10.5995 20.3117 9.764 22.912 9.764C25.4764 9.764 27.4778 10.6126 28.971 12.285L28.971 12.2851L28.9774 12.292C30.5043 13.9387 31.292 16.1744 31.292 19.056C31.292 21.9036 30.5053 24.1423 28.9743 25.8233Z" stroke="black"/>
</g>
<defs>
<filter id="filter0_d_1_24" x="0.584" y="0.824005" width="44.56" height="44.512" filterUnits="userSpaceOnUse" color-interpolation-filters="sRGB">
<feFlood flood-opacity="0" result="BackgroundImageFix"/>
<feColorMatrix in="SourceAlpha" type="matrix" values="0 0 0 0 0 0 0 0 0 0 0 0 0 0 0 0 0 0 127 0" result="hardAlpha"/>
<feOffset dy="4"/>
<feGaussianBlur stdDeviation="2"/>
<feComposite in2="hardAlpha" operator="out"/>
<feColorMatrix type="matrix" values="0 0 0 0 0 0 0 0 0 0 0 0 0 0 0 0 0 0 0.25 0"/>
<feBlend mode="normal" in2="BackgroundImageFix" result="effect1_dropShadow_1_24"/>
<feBlend mode="normal" in="SourceGraphic" in2="effect1_dropShadow_1_24" result="shape"/>
</filter>
</defs>
</svg>
